<svg width="38" height="37" viewBox="0 0 38 37" fill="none" xmlns="http://www.w3.org/2000/svg">
<g clip-path="url(#clip0_21_8530)">
<path d="M19.304 1.62695V35.2466" stroke="#FAFAFA" stroke-width="2" stroke-linecap="round" stroke-linejoin="round"/>
<path d="M26.9451 7.73926H15.4837C14.0651 7.73926 12.7047 8.30277 11.7016 9.30582C10.6985 10.3089 10.135 11.6693 10.135 13.0878C10.135 14.5064 10.6985 15.8668 11.7016 16.8699C12.7047 17.8729 14.0651 18.4364 15.4837 18.4364H23.1246C24.5431 18.4364 25.9036 18.9999 26.9067 20.003C27.9097 21.0061 28.4732 22.3665 28.4732 23.785C28.4732 25.2036 27.9097 26.564 26.9067 27.567C25.9036 28.5701 24.5431 29.1336 23.1246 29.1336H10.135" stroke="#FAFAFA" stroke-width="2" stroke-linecap="round" stroke-linejoin="round"/>
</g>
<defs>
<clipPath id="clip0_21_8530">
<rect width="36.6765" height="36.676" fill="white" transform="translate(0.96582 0.0986328)"/>
</clipPath>
</defs>
</svg>
