<svg width="32" height="32" viewBox="0 0 32 32" fill="none" xmlns="http://www.w3.org/2000/svg">
<path d="M11.7217 18.0028H20.7383" stroke="#FAFAFA" stroke-width="2" stroke-linecap="round" stroke-linejoin="round"/>
<path d="M11.7217 13.5021H20.7383" stroke="#FAFAFA" stroke-width="2" stroke-linecap="round" stroke-linejoin="round"/>
<path d="M11.7217 22.5035H20.7383" stroke="#FAFAFA" stroke-width="2" stroke-linecap="round" stroke-linejoin="round"/>
<path d="M21.3304 5.33325H23.9968C24.7039 5.33325 25.3821 5.6142 25.8821 6.11428C26.3822 6.61437 26.6631 7.29264 26.6631 7.99987V26.6662C26.6631 27.3734 26.3822 28.0517 25.8821 28.5517C25.3821 29.0518 24.7039 29.3328 23.9968 29.3328H7.99884C7.29169 29.3328 6.6135 29.0518 6.11347 28.5517C5.61343 28.0517 5.33252 27.3734 5.33252 26.6662V7.99987C5.33252 7.29264 5.61343 6.61437 6.11347 6.11428C6.6135 5.6142 7.29169 5.33325 7.99884 5.33325H10.6652" stroke="#FAFAFA" stroke-width="2" stroke-linecap="round" stroke-linejoin="round"/>
<path d="M19.9977 2.66656H11.9987C11.2624 2.66656 10.6655 3.26351 10.6655 3.99987V6.66648C10.6655 7.40285 11.2624 7.99979 11.9987 7.99979H19.9977C20.734 7.99979 21.3309 7.40285 21.3309 6.66648V3.99987C21.3309 3.26351 20.734 2.66656 19.9977 2.66656Z" stroke="#FAFAFA" stroke-width="2" stroke-linecap="round" stroke-linejoin="round"/>
</svg>
