<svg width="52" height="52" viewBox="0 0 52 52" fill="none" xmlns="http://www.w3.org/2000/svg">
<g filter="url(#filter0_d_1600_13439)">
<path d="M25.9997 42.6666C35.2044 42.6666 42.6663 35.2047 42.6663 25.9999C42.6663 16.7952 35.2044 9.33325 25.9997 9.33325C16.7949 9.33325 9.33301 16.7952 9.33301 25.9999C9.33301 35.2047 16.7949 42.6666 25.9997 42.6666Z" stroke="#52E2C0" stroke-width="2" stroke-linecap="round" stroke-linejoin="round" shape-rendering="crispEdges"/>
</g>
<g filter="url(#filter1_d_1600_13439)">
<path d="M26 34C30.4183 34 34 30.4183 34 26C34 21.5817 30.4183 18 26 18C21.5817 18 18 21.5817 18 26C18 30.4183 21.5817 34 26 34Z" stroke="#52E2C0" stroke-width="2" stroke-linecap="round" stroke-linejoin="round" shape-rendering="crispEdges"/>
</g>
<defs>
<filter id="filter0_d_1600_13439" x="0.333008" y="0.333252" width="51.3334" height="51.3333" filterUnits="userSpaceOnUse" color-interpolation-filters="sRGB">
<feFlood flood-opacity="0" result="BackgroundImageFix"/>
<feColorMatrix in="SourceAlpha" type="matrix" values="0 0 0 0 0 0 0 0 0 0 0 0 0 0 0 0 0 0 127 0" result="hardAlpha"/>
<feOffset/>
<feGaussianBlur stdDeviation="4"/>
<feComposite in2="hardAlpha" operator="out"/>
<feColorMatrix type="matrix" values="0 0 0 0 0.321569 0 0 0 0 0.886275 0 0 0 0 0.752941 0 0 0 0.5 0"/>
<feBlend mode="normal" in2="BackgroundImageFix" result="effect1_dropShadow_1600_13439"/>
<feBlend mode="normal" in="SourceGraphic" in2="effect1_dropShadow_1600_13439" result="shape"/>
</filter>
<filter id="filter1_d_1600_13439" x="9" y="9" width="34" height="34" filterUnits="userSpaceOnUse" color-interpolation-filters="sRGB">
<feFlood flood-opacity="0" result="BackgroundImageFix"/>
<feColorMatrix in="SourceAlpha" type="matrix" values="0 0 0 0 0 0 0 0 0 0 0 0 0 0 0 0 0 0 127 0" result="hardAlpha"/>
<feOffset/>
<feGaussianBlur stdDeviation="4"/>
<feComposite in2="hardAlpha" operator="out"/>
<feColorMatrix type="matrix" values="0 0 0 0 0.321569 0 0 0 0 0.886275 0 0 0 0 0.752941 0 0 0 0.5 0"/>
<feBlend mode="normal" in2="BackgroundImageFix" result="effect1_dropShadow_1600_13439"/>
<feBlend mode="normal" in="SourceGraphic" in2="effect1_dropShadow_1600_13439" result="shape"/>
</filter>
</defs>
</svg>
